<svg id="af23b031-9e42-4102-b258-d19e54c07d70" data-name="Layer 1" xmlns="http://www.w3.org/2000/svg" viewBox="0 0 45 50"><defs><style>.b711fc84-1d8d-4e9a-8cc9-1fecb66d89db{fill:#0078c1;}</style></defs><title>Exploración formal</title><path class="b711fc84-1d8d-4e9a-8cc9-1fecb66d89db" d="M42.34,10.56,25.16.71A5.33,5.33,0,0,0,22.62,0h-.24a5.33,5.33,0,0,0-2.54.7L2.66,10.56A5.31,5.31,0,0,0,0,15.14V34.86a5.31,5.31,0,0,0,2.66,4.58l17.18,9.85h0a5.33,5.33,0,0,0,2.54.7h.24a5.33,5.33,0,0,0,2.54-.7l17.18-9.85A5.31,5.31,0,0,0,45,34.86V15.14A5.31,5.31,0,0,0,42.34,10.56ZM23.73,30l3.85-2.21a.4.4,0,0,0,0-.7l-1.43-.82a.8.8,0,0,0-.82,0L22.5,27.91,9.32,20.35a.41.41,0,0,1-.2-.35.42.42,0,0,1,.2-.36l12-6.85V20l-3.84,2.2a.41.41,0,0,0,0,.71l1.43.82a.85.85,0,0,0,.82,0l2.82-1.62,13.18,7.56a.41.41,0,0,1,.2.35.42.42,0,0,1-.2.36L23.73,37.21ZM21.07,47.18,3.89,37.32a2.86,2.86,0,0,1-1.43-2.46V15.14a2.86,2.86,0,0,1,1.43-2.46L21.07,2.82a1.24,1.24,0,0,1,.2-.1V10L8.1,17.53a2.83,2.83,0,0,0,0,4.93L21.27,30v7.19L9.32,30.36a.42.42,0,0,1-.2-.36.41.41,0,0,1,.2-.35l3.24-1.87a.4.4,0,0,0,0-.7l-1.41-.81a.85.85,0,0,0-.82,0L8.1,27.54a2.83,2.83,0,0,0,0,4.93L21.27,40v7.25l-.2-.1ZM42.54,34.86a2.86,2.86,0,0,1-1.43,2.46L23.93,47.18l-.2.1V40L36.9,32.47a2.83,2.83,0,0,0,0-4.93L23.73,20V12.79l12,6.85a.42.42,0,0,1,.2.36.41.41,0,0,1-.2.35l-3.23,1.86a.4.4,0,0,0,0,.7l1.44.83a.83.83,0,0,0,.82,0l2.19-1.27a2.83,2.83,0,0,0,0-4.93L23.73,10V2.72a1.24,1.24,0,0,1,.2.1l17.18,9.86a2.86,2.86,0,0,1,1.43,2.46Z"/></svg>